<?xml version="1.0" encoding="UTF-8" standalone="no"?>
<!DOCTYPE svg PUBLIC "-//W3C//DTD SVG 1.1//EN" "http://www.w3.org/Graphics/SVG/1.1/DTD/svg11.dtd">
<svg width="100%" height="100%" viewBox="0 0 2200 2200" version="1.1" xmlns="http://www.w3.org/2000/svg" xmlns:xlink="http://www.w3.org/1999/xlink" xml:space="preserve" xmlns:serif="http://www.serif.com/" style="fill-rule:evenodd;clip-rule:evenodd;stroke-linejoin:round;stroke-miterlimit:2;">
    <g>
        <rect x="0" y="0" width="2200" height="2200" style="fill:white;fill-rule:nonzero;"/>
        <path d="M1993.75,345.561C1792.93,326.066 1639.19,338.225 1447.6,448.508C1309,528.298 1157.57,698.159 1175.35,959.277C1502.31,627.107 1780.96,570.87 1783.75,570.314C1480.23,693.513 1224.58,929.629 1075.01,1220.78C921.804,970.671 688.249,769.591 416.245,659.187C419.039,659.742 697.695,715.979 1024.65,1048.15C1042.43,787.032 891.004,617.17 752.402,537.381C560.807,427.097 407.066,414.938 206.251,434.433C152.591,618.225 154.814,821.069 219.111,970.429C259.444,1064.14 325.698,1146.52 412.469,1200.18C600.577,1316.51 853.586,1228.14 946.42,1164.71C946.42,1164.71 989.185,1215.16 1033.829,1308.67C1036.5,1314.26 1039.18,1320.02 1041.86,1325.92C1053.25,1351.05 1068.47,1403.4 1077.37,1458.82C832.009,1466.51 618.053,1598.78 496.679,1794.5C478.394,1823.99 499.48,1862.09 534.175,1862.09L1665.83,1862.09C1700.4,1862.09 1721.67,1824.12 1703.46,1794.73C1589.37,1610.6 1393.36,1482.57 1166.32,1461.52C1159.33,1408.28 1140.93,1340.93 1127.13,1313.86C1181.79,1160.53 1253.58,1075.84 1253.58,1075.84C1346.41,1139.27 1599.42,1227.64 1787.53,1111.31C1874.3,1057.65 1940.56,975.269 1980.89,881.557C2045.19,732.196 2047.41,529.353 1993.75,345.561Z" style="fill:rgb(54,180,74);fill-rule:nonzero;"/>
    </g>
</svg>
